<svg id="visual" viewBox="0 0 960 540" width="960" height="540" xmlns="http://www.w3.org/2000/svg" xmlns:xlink="http://www.w3.org/1999/xlink" version="1.1"><path d="M0 50L32 51.7C64 53.3 128 56.7 192 62.8C256 69 320 78 384 83.5C448 89 512 91 576 93.8C640 96.7 704 100.3 768 102.2C832 104 896 104 928 104L960 104L960 0L928 0C896 0 832 0 768 0C704 0 640 0 576 0C512 0 448 0 384 0C320 0 256 0 192 0C128 0 64 0 32 0L0 0Z" fill="#009473"></path><path d="M0 98L32 104.3C64 110.7 128 123.3 192 133.3C256 143.3 320 150.7 384 151.5C448 152.3 512 146.7 576 144.8C640 143 704 145 768 149.5C832 154 896 161 928 164.5L960 168L960 102L928 102C896 102 832 102 768 100.2C704 98.3 640 94.7 576 91.8C512 89 448 87 384 81.5C320 76 256 67 192 60.8C128 54.7 64 51.3 32 49.7L0 48Z" fill="#5eaf94"></path><path d="M0 255L32 263C64 271 128 287 192 301.3C256 315.7 320 328.3 384 328.3C448 328.3 512 315.7 576 313C640 310.3 704 317.7 768 315C832 312.3 896 299.7 928 293.3L960 287L960 166L928 162.5C896 159 832 152 768 147.5C704 143 640 141 576 142.8C512 144.7 448 150.3 384 149.5C320 148.7 256 141.3 192 131.3C128 121.3 64 108.7 32 102.3L0 96Z" fill="#96cab7"></path><path d="M0 368L32 377C64 386 128 404 192 414C256 424 320 426 384 424.2C448 422.3 512 416.7 576 412.2C640 407.7 704 404.3 768 393.7C832 383 896 365 928 356L960 347L960 285L928 291.3C896 297.7 832 310.3 768 313C704 315.7 640 308.3 576 311C512 313.7 448 326.3 384 326.3C320 326.3 256 313.7 192 299.3C128 285 64 269 32 261L0 253Z" fill="#cbe5da"></path><path d="M0 541L32 541C64 541 128 541 192 541C256 541 320 541 384 541C448 541 512 541 576 541C640 541 704 541 768 541C832 541 896 541 928 541L960 541L960 345L928 354C896 363 832 381 768 391.7C704 402.3 640 405.7 576 410.2C512 414.7 448 420.3 384 422.2C320 424 256 422 192 412C128 402 64 384 32 375L0 366Z" fill="#ffffff"></path></svg>