<svg id="visual" viewBox="0 0 960 540" width="960" height="540" xmlns="http://www.w3.org/2000/svg" xmlns:xlink="http://www.w3.org/1999/xlink" version="1.1"><path d="M0 147L17.8 166.8C35.7 186.7 71.3 226.3 106.8 243.3C142.3 260.3 177.7 254.7 213.2 237.5C248.7 220.3 284.3 191.7 320 190.8C355.7 190 391.3 217 426.8 223.3C462.3 229.7 497.7 215.3 533.2 193.7C568.7 172 604.3 143 640 143C675.7 143 711.3 172 746.8 198.2C782.3 224.3 817.7 247.7 853.2 236C888.7 224.3 924.3 177.7 942.2 154.3L960 131L960 0L942.2 0C924.3 0 888.7 0 853.2 0C817.7 0 782.3 0 746.8 0C711.3 0 675.7 0 640 0C604.3 0 568.7 0 533.2 0C497.7 0 462.3 0 426.8 0C391.3 0 355.7 0 320 0C284.3 0 248.7 0 213.2 0C177.7 0 142.3 0 106.8 0C71.3 0 35.7 0 17.8 0L0 0Z" fill="#ffffff"></path><path d="M0 298L17.8 308.8C35.7 319.7 71.3 341.3 106.8 360.2C142.3 379 177.7 395 213.2 399.5C248.7 404 284.3 397 320 388C355.7 379 391.3 368 426.8 351.8C462.3 335.7 497.7 314.3 533.2 320.7C568.7 327 604.3 361 640 361C675.7 361 711.3 327 746.8 324.3C782.3 321.7 817.7 350.3 853.2 354.8C888.7 359.3 924.3 339.7 942.2 329.8L960 320L960 129L942.2 152.3C924.3 175.7 888.7 222.3 853.2 234C817.7 245.7 782.3 222.3 746.8 196.2C711.3 170 675.7 141 640 141C604.3 141 568.7 170 533.2 191.7C497.7 213.3 462.3 227.7 426.8 221.3C391.3 215 355.7 188 320 188.8C284.3 189.7 248.7 218.3 213.2 235.5C177.7 252.7 142.3 258.3 106.8 241.3C71.3 224.3 35.7 184.7 17.8 164.8L0 145Z" fill="#b9dccf"></path><path d="M0 465L17.8 463.3C35.7 461.7 71.3 458.3 106.8 458.3C142.3 458.3 177.7 461.7 213.2 466.2C248.7 470.7 284.3 476.3 320 468.3C355.7 460.3 391.3 438.7 426.8 433.2C462.3 427.7 497.7 438.3 533.2 445.5C568.7 452.7 604.3 456.3 640 450C675.7 443.7 711.3 427.3 746.8 429.2C782.3 431 817.7 451 853.2 463.7C888.7 476.3 924.3 481.7 942.2 484.3L960 487L960 318L942.2 327.8C924.3 337.7 888.7 357.3 853.2 352.8C817.7 348.3 782.3 319.7 746.8 322.3C711.3 325 675.7 359 640 359C604.3 359 568.7 325 533.2 318.7C497.7 312.3 462.3 333.7 426.8 349.8C391.3 366 355.7 377 320 386C284.3 395 248.7 402 213.2 397.5C177.7 393 142.3 377 106.8 358.2C71.3 339.3 35.7 317.7 17.8 306.8L0 296Z" fill="#71b8a0"></path><path d="M0 541L17.8 541C35.7 541 71.3 541 106.8 541C142.3 541 177.7 541 213.2 541C248.7 541 284.3 541 320 541C355.7 541 391.3 541 426.8 541C462.3 541 497.7 541 533.2 541C568.7 541 604.3 541 640 541C675.7 541 711.3 541 746.8 541C782.3 541 817.7 541 853.2 541C888.7 541 924.3 541 942.2 541L960 541L960 485L942.2 482.3C924.3 479.7 888.7 474.3 853.2 461.7C817.7 449 782.3 429 746.8 427.2C711.3 425.3 675.7 441.7 640 448C604.3 454.3 568.7 450.7 533.2 443.5C497.7 436.3 462.3 425.7 426.8 431.2C391.3 436.7 355.7 458.3 320 466.3C284.3 474.3 248.7 468.7 213.2 464.2C177.7 459.7 142.3 456.3 106.8 456.3C71.3 456.3 35.7 459.7 17.8 461.3L0 463Z" fill="#009473"></path></svg>